<mxfile host="app.diagrams.net" modified="2023-09-11T15:34:16.958Z" agent="Mozilla/5.0 (X11; Ubuntu; Linux x86_64; rv:109.0) Gecko/20100101 Firefox/117.0" etag="76OofMwuY993JWoBwkti" version="21.7.4" type="device">
  <diagram name="Seite-1" id="B5S2OoCQATlipGPwTUq0">
    <mxGraphModel dx="2002" dy="1003" grid="1" gridSize="10" guides="1" tooltips="1" connect="1" arrows="1" fold="1" page="1" pageScale="1" pageWidth="827" pageHeight="1169" math="0" shadow="0">
      <root>
        <mxCell id="0" />
        <mxCell id="1" parent="0" />
        <mxCell id="jn0Opucc1A8uLxIBEZNX-7" style="edgeStyle=orthogonalEdgeStyle;rounded=0;orthogonalLoop=1;jettySize=auto;html=1;exitX=1;exitY=0.5;exitDx=0;exitDy=0;entryX=0;entryY=0.5;entryDx=0;entryDy=0;" parent="1" source="jn0Opucc1A8uLxIBEZNX-1" target="jn0Opucc1A8uLxIBEZNX-4" edge="1">
          <mxGeometry relative="1" as="geometry" />
        </mxCell>
        <mxCell id="jn0Opucc1A8uLxIBEZNX-8" value="&lt;font style=&quot;font-size: 14px;&quot;&gt;Build &amp;amp; Push image:v0.0.1&lt;/font&gt;" style="edgeLabel;html=1;align=center;verticalAlign=middle;resizable=0;points=[];labelBackgroundColor=default;" parent="jn0Opucc1A8uLxIBEZNX-7" vertex="1" connectable="0">
          <mxGeometry y="2" relative="1" as="geometry">
            <mxPoint x="5" y="12" as="offset" />
          </mxGeometry>
        </mxCell>
        <mxCell id="jn0Opucc1A8uLxIBEZNX-1" value="&lt;font style=&quot;font-size: 18px;&quot;&gt;Github&lt;/font&gt;" style="rounded=0;whiteSpace=wrap;html=1;" parent="1" vertex="1">
          <mxGeometry x="54" y="160" width="120" height="60" as="geometry" />
        </mxCell>
        <mxCell id="jn0Opucc1A8uLxIBEZNX-3" style="edgeStyle=orthogonalEdgeStyle;rounded=0;orthogonalLoop=1;jettySize=auto;html=1;exitX=0.5;exitY=0;exitDx=0;exitDy=0;entryX=0.5;entryY=1;entryDx=0;entryDy=0;" parent="1" source="jn0Opucc1A8uLxIBEZNX-2" target="jn0Opucc1A8uLxIBEZNX-1" edge="1">
          <mxGeometry relative="1" as="geometry" />
        </mxCell>
        <mxCell id="jn0Opucc1A8uLxIBEZNX-6" value="&lt;font style=&quot;font-size: 14px;&quot;&gt;Push new Tag, e.g. v0.0.1&lt;/font&gt;" style="edgeLabel;html=1;align=center;verticalAlign=middle;resizable=0;points=[];labelBackgroundColor=default;" parent="jn0Opucc1A8uLxIBEZNX-3" vertex="1" connectable="0">
          <mxGeometry x="0.0667" y="1" relative="1" as="geometry">
            <mxPoint x="87" y="14" as="offset" />
          </mxGeometry>
        </mxCell>
        <mxCell id="jn0Opucc1A8uLxIBEZNX-2" value="&lt;font style=&quot;font-size: 18px;&quot;&gt;Local PC&lt;/font&gt;" style="rounded=0;whiteSpace=wrap;html=1;" parent="1" vertex="1">
          <mxGeometry x="54" y="340" width="120" height="60" as="geometry" />
        </mxCell>
        <mxCell id="jn0Opucc1A8uLxIBEZNX-11" style="edgeStyle=orthogonalEdgeStyle;rounded=0;orthogonalLoop=1;jettySize=auto;html=1;exitX=1;exitY=0.5;exitDx=0;exitDy=0;entryX=0;entryY=0.5;entryDx=0;entryDy=0;" parent="1" source="jn0Opucc1A8uLxIBEZNX-4" target="jn0Opucc1A8uLxIBEZNX-5" edge="1">
          <mxGeometry relative="1" as="geometry" />
        </mxCell>
        <mxCell id="jn0Opucc1A8uLxIBEZNX-12" value="&lt;font style=&quot;font-size: 14px;&quot;&gt;Pull image:v0.0.1&lt;/font&gt;" style="edgeLabel;html=1;align=center;verticalAlign=middle;resizable=0;points=[];labelBackgroundColor=default;" parent="jn0Opucc1A8uLxIBEZNX-11" vertex="1" connectable="0">
          <mxGeometry x="0.0364" y="4" relative="1" as="geometry">
            <mxPoint y="14" as="offset" />
          </mxGeometry>
        </mxCell>
        <mxCell id="jn0Opucc1A8uLxIBEZNX-4" value="&lt;font style=&quot;font-size: 18px;&quot;&gt;Github Container Registry&lt;/font&gt;" style="rounded=0;whiteSpace=wrap;html=1;" parent="1" vertex="1">
          <mxGeometry x="364" y="160" width="160" height="60" as="geometry" />
        </mxCell>
        <mxCell id="jn0Opucc1A8uLxIBEZNX-5" value="&lt;font style=&quot;font-size: 18px;&quot;&gt;Kubernetes Cluster&lt;/font&gt;" style="rounded=0;whiteSpace=wrap;html=1;" parent="1" vertex="1">
          <mxGeometry x="654" y="160" width="120" height="60" as="geometry" />
        </mxCell>
      </root>
    </mxGraphModel>
  </diagram>
</mxfile>
